<svg width="20" height="20" fill="none" xmlns="http://www.w3.org/2000/svg"><path d="M10 16.7c1.8 0 3.5-.6 5-1.7 1.2-1 2.2-2 3-3.2a3 3 0 0 0 0-3.5c-1.3-2-4.1-5-8-5m0 13.4c-3.9 0-6.6-3-8-5a3 3 0 0 1 0-3.4C2.7 7 3.8 6 5 5 6.6 4 8.3 3.4 10 3.4m0 13.3c.6 0 1.2 0 1.8-.2m-1.8.2c-3.9 0-6.6-3-8-5a3 3 0 0 1 0-3.4l.6-1m5.7-3.7c.5-.2 1.1-.2 1.7-.2m0 0c3.9 0 6.7 3 8 4.9a3 3 0 0 1 0 3.5l-.6.9m-5.6-.9a2.5 2.5 0 1 1-3.6-3.5 2.5 2.5 0 1 1 3.6 3.5Z" stroke="#9EA8B3" stroke-width="1.3" stroke-linecap="round" stroke-linejoin="round"/></svg>