<svg width="393" height="386" fill="none" xmlns="http://www.w3.org/2000/svg"><path opacity=".3" d="M0 0h393v386H0V0Z" fill="url(#a)"/><g clip-path="url(#b)"><path d="M118.4 152.4s-18-15-25.6-2.2c-7.5 12.6 16.5 26.4 26.3 43.8 9.8 17.5 57.5 176.2 132.5 173.8 75-2.4 107.3-66.9 94.1-147.8-13.1-81-37-68.3-37-68.3" stroke="#A0C296" stroke-width="1.9" stroke-linecap="round" stroke-linejoin="round"/><path d="M202.4 144.5s-15.5-.4-25 8.4C168 162 154 189 154 189s-6-32.3-9-35.6c-2.8-3.3-11.3-4.8-17.2-4.7-5.9.2-12.4 9.5-12 11.6.2 2.1 5 12.2 10.3 14.1 5.3 2 5.9-.9 5.9-.9s-4.8 48 15 52.1c19.9 4.2 47.1-54 47.1-54l8.3-27.1Z" fill="#FFB6B2"/><path d="M202.4 144.5h-2.1l-4.4 16.5s-2.8 9.3 14.3 6.8c17.1-2.5 13.3-23.3 13.3-23.3l-1.6-.5c-4.8-4-8.3-17.2-8.3-17.2 4 .6 9.2 3.4 7.8-6.8-1.1-8.7-8.4.6-8.4.6l2.8-3.6s8.5-8-4-10.4c-12.4-2.5-12.5 5.3-13.3 6.1-.8.8-1.7 6.2-1.7 6.2s-2.5 2.2-2.5 2.6c0 .4 2 .5 2 .5s-2.6 6.5.1 9.9c3.6 4.5 7.1 3.8 7.1 3.8l-1 8.8Z" fill="#FFB6B2"/><path d="m122.7 153.4-.6 5.7-6.6-5.7 3.2-3.2 4 3.2ZM136.6 170.3l4.2 2.9 3-4.4-6-4.7s1.1 4-1.2 6.2Z" fill="#142132"/><path d="m137.8 164.1-6.1-6M132.1 151s2 5.2-2.7 10.1c0 0 2.7 6.9-1.2 8 0 0-.8.2-1.1-.9-.3-1-2-4.8-2-4.8s-2.9-.8-3-4.3c-.1-3.5 1.1-6.7 1.1-6.7M134.4 168.7s2-1.8 2.2-5.2M131.2 166s2.6-2.7 2.7-5.4" stroke="#F67B7A" stroke-width=".7" stroke-linecap="round" stroke-linejoin="round"/><path d="M132.4 155.8a8 8 0 0 0 6.8 6.9M132 173.6l4.6-3.3M154 189l5 10" stroke="#F67B7A" stroke-width=".7" stroke-linecap="round" stroke-linejoin="round"/><path d="M223.5 144.5s15.5-.4 25 8.4C258 162 272 189 272 189s6-32.3 8.9-35.6c2.8-3.3 11.4-4.8 17.3-4.7 5.8.2 12.3 9.5 12 11.6-.3 2.1-5.1 12.2-10.4 14.1-5.2 2-5.8-.9-5.8-.9s4.7 48-15 52.1c-20 4.2-43.4-48-43.4-48L216.8 166l6.7-21.6Z" fill="#FFB6B2"/><path d="m303.3 153.4.5 5.7 6.6-5.7-3.2-3.2-4 3.2ZM289.4 170.3l-4.3 2.9-2.9-4.4 6-4.7s-1.2 4 1.2 6.2Z" fill="#142132"/><path d="m288.2 164.1 6-6M293.8 151s-2 5.2 2.7 10.1c0 0-2.7 6.9 1.2 8 0 0 .9.2 1.2-.9.3-1 2-4.8 2-4.8s2.8-.8 3-4.3c0-3.5-1.2-6.7-1.2-6.7M291.5 168.7s-2-1.8-2.1-5.2M294.7 166s-2.5-2.7-2.6-5.4" stroke="#F67B7A" stroke-width=".7" stroke-linecap="round" stroke-linejoin="round"/><path d="M293.6 155.8s-.5 5.7-6.9 6.9M294 173.6l-4.6-3.3M272 189l-5.1 10" stroke="#F67B7A" stroke-width=".7" stroke-linecap="round" stroke-linejoin="round"/><path d="M201.4 144.5s-3.9 10.3-3 17c0 0 8.5 5 20.8 1 0 0 .3-14 3.4-19.8l4.2 1.1s-9.1 20.6 8.8 33.8c0 0-5.1 18.2-2 24.4 0 0-25 15.4-46 1.7 0 0 0-17.8-1.7-26.6-1.7-9 7.2-16 7.2-16s2.3-12 5-16.4l3.3-.2Z" fill="#A0C296"/><path d="M213 120.6s-13.2-2.3-14.8-10.6c-1.7-8.4 11.9-14.1 21.5-9.2 9.6 5 16.1 17 26.3 19.8 10.2 2.8 23.7-10.5 34-2.4 10.4 8.2 10 40.3-22.4 40-32.5-.4-43.8-20.8-44-31.4 0 0 2.3.8 4.2-.2 2.2-1.2 4.1-4.4 1.8-7-3.2-3.8-6.5 1-6.5 1Z" fill="#142132"/><path d="M187.7 203.7s-16.7 22.7-11 66.9c5.6 44.1 25.6 53.5 34 53.5 8.3 0 13-7.6 13-7.6s9.2 11.1 18.4 7.6c9-3.5 46-31.7 46-31.7s.7-19.4-14.7-29.7l-13.6 7.2s-2-4-8.2-8.7c0 0 4.7-44.7-18-59.2 0 0-29 13.8-46 1.7Z" fill="#795069"/><path d="M251.6 261.2s18.3-15 22.5-14.6c4.1.4 9.8 11.4 9.8 11.4s16.7-11.2 22-10.2c5.4 1 24.8 29.9 23 32-1.7 2.2-26.5-7.5-26.5-7.5l-14.6 15s-4.1-17.8-14.4-24.6l-13.6 7.2s-3.6-5.6-8.2-8.7Z" fill="#FFB6B2"/><path d="M223.7 316.5s-19-31.6-14.5-84.2" stroke="#142132" stroke-width=".7" stroke-linecap="round" stroke-linejoin="round"/><path d="M198.2 228.6s8.9 7.5 21 0" stroke="#142132" stroke-width=".7" stroke-linecap="round" stroke-linejoin="round"/><path d="M273.4 262.8 284 258" stroke="#F67B7A" stroke-width=".7" stroke-linecap="round" stroke-linejoin="round"/><path d="m259.8 270-9.3 3M251.6 261.2s-3.3 33.4-7.8 42.6M229.8 203.6s-1.6-19.9 2-29.2" stroke="#142132" stroke-width=".7" stroke-linecap="round" stroke-linejoin="round"/><path d="M203.5 135.7s4.7.7 8.4-2.4M235.6 177.6l-2.8-7" stroke="#F67B7A" stroke-width=".7" stroke-linecap="round" stroke-linejoin="round"/><path d="M214.2 123.6s-.7-2.9 1.6-3.9c2.4-1 4.5 3.4 1 6 0 0 0-1.1-1-1-1 0-.7 1.5-.7 1.5" stroke="#F67B7A" stroke-width=".4" stroke-linecap="round" stroke-linejoin="round"/><path d="M218 124.8s-.6-5.1-2.9-4.6" stroke="#F67B7A" stroke-width=".4" stroke-linecap="round" stroke-linejoin="round"/><path d="m202.4 144.5 8.7-10.6-3.4 1.5-4.2.3-1 8.8Z" fill="#F67B7A"/></g><path d="M105.3 285c-13.3-12.2-36-13.6-57.2-10.7C17.8 278.4 2 307 2 337.7A48.3 48.3 0 0 0 50.3 386h315.5a26.2 26.2 0 0 0 26.2-26.2c0-23.2-28.9-36-47.8-22.7-11 7.8-23 15.2-34.4 20.9-41.1 20.2-89.5 17.5-126.3 3.9-38.6-14.3-45.7-46.6-78.2-76.8Z" fill="#A0C296"/><defs><radialGradient id="a" cx="0" cy="0" r="1" gradientUnits="userSpaceOnUse" gradientTransform="rotate(-54.1 295 -194.7) scale(204.832 208.546)"><stop offset=".6" stop-color="#EA974C" stop-opacity=".4"/><stop offset=".9" stop-color="#fff" stop-opacity="0"/><stop offset="1" stop-color="#fff" stop-opacity=".4"/></radialGradient><clipPath id="b"><path fill="#fff" transform="translate(90 99)" d="M0 0h260v270.2H0z"/></clipPath></defs></svg>