<svg width="280" height="280" fill="none" xmlns="http://www.w3.org/2000/svg"><g clip-path="url(#a)"><path d="M268.191 150.089c4.27.561 7.284 4.561 6.75 8.976-.513 4.415-4.411 7.532-8.651 6.979-23.909-.261-47.455-5.766-69.114-16.185 3.898-20.601-2.792-41.823-17.62-56.105 11.583-21.606 27.495-40.41 46.682-55.129.594-.591 1.307-1.06 2.05-1.444 3.898-1.858 8.539-.092 10.336 3.947 1.789 4.031.081 8.8-3.817 10.657-17.85 11.863-27.696 33.147-25.387 54.953a33.109 33.109 0 0 0 4.53 14.45c10.558 19.012 30.599 30.26 51.776 28.993a8.964 8.964 0 0 1 2.48-.092h-.015Z" fill="#F18924"/><path d="M265.364 110.312c3.23-14.196-5.281-28.411-19.009-31.751-13.728-3.34-27.475 5.46-30.705 19.656-3.23 14.195 5.28 28.411 19.008 31.751 13.728 3.34 27.476-5.46 30.706-19.656Z" fill="#F18924"/><path d="M164.212 146.192c3.125-13.732-5.436-27.563-19.12-30.893a25.044 25.044 0 0 0-30.434 18.837c-3.125 13.732 5.435 27.563 19.119 30.892a25.044 25.044 0 0 0 30.435-18.836Z" stroke="#142132" stroke-width="20" stroke-miterlimit="10"/><path d="M201.92 200.627c14.093 0 25.536 11.832 25.536 26.405s-11.443 26.406-25.536 26.406c-14.093 0-25.535-11.802-25.535-26.406s11.442-26.405 25.535-26.405Z" fill="#FFE9A5"/><path d="M200.554 11.452c3.899 1.881 5.555 6.68 3.728 10.688-7.626 23.403-19.981 44.886-36.265 62.961-17.732-10.181-39.309-10.181-57.041 0-16.284-18.075-28.64-39.558-36.265-62.961a9.02 9.02 0 0 1-.683-2.473c-.483-4.415 2.562-8.392 6.801-8.922 4.27-.53 8.139 2.619 8.65 7.034C94.864 39 111.4 55.249 132.154 59.755a30.275 30.275 0 0 0 14.687 0c20.776-4.507 37.29-20.754 42.695-41.976a7.542 7.542 0 0 1 .683-2.473c1.82-4 6.431-5.743 10.336-3.854Z" fill="#C4D6F0"/><path d="M167.482 266.03c.401.737.683 1.558.854 2.411.795 4.353-1.968 8.569-6.178 9.421-4.21.821-8.286-2.027-9.081-6.388-7.143-23.58-9.333-48.45-6.46-72.966 20.152-2.534 37.602-15.656 46.17-34.675 23.427 4.738 45.629 14.573 65.098 28.878.742.414 1.396.975 1.967 1.589 2.904 3.271 2.703 8.362-.43 11.364-3.156 3.002-8.086 2.825-10.99-.446-16.424-13.889-39.027-16.984-58.385-8.008-4.611 1.943-8.68 5.006-11.895 8.922-14.234 16.247-18.385 39.443-10.677 59.898h.007Z" fill="#FFE9A5"/><path d="M139.496 2c14.116 0 25.536 11.801 25.536 26.405 0 14.604-11.413 26.375-25.536 26.375-14.122 0-25.535-11.802-25.535-26.375S125.411 2 139.496 2Z" fill="#C4D6F0"/><path d="M132.383 198.508c2.903 24.516.713 49.394-6.431 72.966a8.833 8.833 0 0 1-.853 2.411c-2.109 3.854-6.832 5.236-10.589 3.086-3.727-2.18-5.064-7.094-2.963-10.949 7.686-20.455 3.557-43.65-10.699-59.897-3.216-3.916-7.284-6.98-11.873-8.922-19.358-8.976-41.96-5.89-58.385 8.008a8.655 8.655 0 0 1-1.96 1.589c-3.758 2.119-8.48.707-10.56-3.179-2.078-3.885-.712-8.768 3.045-10.918 19.47-14.304 41.67-24.132 65.127-28.878 8.569 19.012 26.018 32.141 46.141 34.675v.008Z" fill="#814E6B"/><path d="M77.072 200.627c14.116 0 25.536 11.832 25.536 26.405s-11.413 26.406-25.536 26.406c-14.123 0-25.506-11.802-25.506-26.406s11.413-26.405 25.506-26.405Z" fill="#814E6B"/><path d="M56.563 122.932c9.972-10.312 9.972-27.03 0-37.343-9.973-10.312-26.14-10.312-36.113 0-9.972 10.312-9.972 27.031 0 37.343 9.972 10.312 26.14 10.312 36.112 0Z" fill="#97C392"/><path d="M12.747 166.037a7.07 7.07 0 0 1-2.48-.085c-4.21-.852-6.943-5.09-6.118-9.452.854-4.353 4.923-7.179 9.14-6.326 21.207 1.267 41.248-9.982 51.806-28.993a33.119 33.119 0 0 0 4.53-14.451c2.28-21.813-7.544-43.09-25.395-54.952a7.796 7.796 0 0 1-2.079-1.413C39.018 47.332 38.847 42.24 41.81 39c2.932-3.24 7.826-3.417 10.989-.384 19.157 14.72 35.07 33.523 46.683 55.13-14.858 14.273-21.519 35.496-17.62 56.104-21.66 10.419-45.228 15.925-69.115 16.186Z" fill="#97C392"/></g><defs><clipPath id="a"><path fill="#fff" transform="translate(4 2)" d="M0 0h271v276H0z"/></clipPath></defs></svg>