<svg width="280" height="326" fill="none" xmlns="http://www.w3.org/2000/svg"><g clip-path="url(#a)" fill="#0F2334"><path d="M90.59 3.162v22.544h-4.523V11.043l-6.043 14.663h-3.426l-6.074-14.663v14.663H66V3.162h5.136l7.175 16.762 7.175-16.762h5.105ZM98.344 24.85a8.272 8.272 0 0 1-3.247-3.245c-.785-1.401-1.18-3.013-1.18-4.844 0-1.83.405-3.445 1.211-4.843a8.411 8.411 0 0 1 3.313-3.245c1.398-.765 2.962-1.146 4.686-1.146 1.723 0 3.284.384 4.686 1.146a8.407 8.407 0 0 1 3.312 3.245c.807 1.401 1.212 3.013 1.212 4.843s-.416 3.446-1.243 4.844a8.6 8.6 0 0 1-3.361 3.245c-1.412.765-2.99 1.145-4.734 1.145-1.745 0-3.274-.38-4.652-1.145h-.003Zm6.963-3.39c.72-.398 1.298-.997 1.727-1.792.429-.796.647-1.765.647-2.907 0-1.702-.446-3.01-1.339-3.923-.893-.913-1.987-1.373-3.281-1.373s-2.374.456-3.246 1.373c-.873.917-1.309 2.225-1.309 3.923 0 1.7.426 3.01 1.277 3.924.852.917 1.925 1.373 3.216 1.373.817 0 1.588-.2 2.308-.598ZM120.93 11.528v8.656c0 .602.145 1.038.436 1.308.291.27.782.405 1.471.405h2.101v3.812h-2.845c-3.814 0-5.718-1.85-5.718-5.556v-8.625h-2.132V7.812h2.132V3.387h4.555v4.425h4.008v3.716h-4.008ZM155.745 9.573c1.346 1.346 2.017 3.225 2.017 5.636v10.497h-4.523v-9.884c0-1.398-.357-2.47-1.066-3.214-.71-.744-1.679-1.114-2.908-1.114-1.228 0-2.201.37-2.924 1.114-.723.743-1.083 1.813-1.083 3.214v9.884h-4.524v-9.884c0-1.398-.356-2.47-1.066-3.214-.709-.744-1.679-1.114-2.907-1.114-1.229 0-2.236.37-2.956 1.114-.723.743-1.083 1.813-1.083 3.214v9.884h-4.524V7.816h4.524v2.162c.581-.754 1.329-1.346 2.246-1.775.914-.429 1.921-.647 3.021-.647 1.399 0 2.652.298 3.749.89a6.242 6.242 0 0 1 2.554 2.536c.581-1.035 1.426-1.862 2.537-2.488a7.24 7.24 0 0 1 3.603-.938c2.198 0 3.97.675 5.316 2.017h-.003ZM161.981 11.883c.72-1.398 1.703-2.477 2.942-3.231 1.239-.755 2.624-1.132 4.153-1.132 1.336 0 2.506.27 3.506.806 1.001.54 1.804 1.218 2.409 2.035V7.807h4.555v17.894h-4.555v-2.615c-.581.84-1.384 1.532-2.409 2.082-1.024.55-2.201.824-3.537.824-1.509 0-2.883-.388-4.118-1.163-1.24-.775-2.219-1.868-2.942-3.28-.724-1.411-1.084-3.03-1.084-4.86 0-1.83.36-3.412 1.084-4.813l-.004.007Zm12.36 2.052c-.433-.786-1.015-1.388-1.745-1.81a4.684 4.684 0 0 0-2.36-.63c-.841 0-1.617.205-2.326.613-.71.408-1.288 1.007-1.727 1.792-.443.785-.661 1.716-.661 2.795 0 1.08.221 2.017.661 2.827.439.806 1.024 1.426 1.744 1.858.72.433 1.492.647 2.312.647.82 0 1.627-.211 2.361-.63.73-.418 1.315-1.024 1.744-1.81.429-.785.647-1.726.647-2.826s-.214-2.041-.647-2.826h-.003ZM189.237 11.528v8.656c0 .602.146 1.038.437 1.308.29.27.782.405 1.471.405h2.1v3.812H190.4c-3.814 0-5.717-1.85-5.717-5.556v-8.625h-2.132V7.812h2.132V3.387h4.554v4.425h4.008v3.716h-4.008ZM213.018 18.118h-13.086c.107 1.29.56 2.305 1.356 3.038.796.734 1.776 1.097 2.942 1.097 1.682 0 2.876-.72 3.586-2.166h4.88c-.516 1.723-1.509 3.138-2.973 4.249-1.464 1.11-3.264 1.664-5.396 1.664-1.724 0-3.267-.38-4.638-1.145a8.088 8.088 0 0 1-3.198-3.246c-.765-1.4-1.145-3.013-1.145-4.843s.377-3.477 1.131-4.879c.755-1.397 1.811-2.477 3.167-3.231 1.357-.754 2.918-1.131 4.687-1.131 1.768 0 3.225.366 4.572 1.096a7.748 7.748 0 0 1 3.135 3.118c.744 1.345 1.115 2.892 1.115 4.636 0 .647-.042 1.228-.128 1.743h-.007Zm-4.555-3.037c-.021-1.163-.443-2.093-1.26-2.796-.82-.699-1.82-1.048-3.004-1.048-1.121 0-2.063.339-2.828 1.017-.765.678-1.232 1.62-1.405 2.827h8.497ZM130.6 5.667A2.834 2.834 0 1 0 130.602 0a2.834 2.834 0 0 0-.002 5.668Z"/></g><g clip-path="url(#b)"><path d="M268.191 196.089c4.27.561 7.284 4.561 6.75 8.976-.513 4.415-4.411 7.532-8.651 6.979-23.909-.261-47.455-5.766-69.114-16.185 3.898-20.601-2.792-41.823-17.62-56.105 11.583-21.606 27.495-40.41 46.682-55.129.594-.591 1.307-1.06 2.05-1.444 3.898-1.858 8.539-.092 10.336 3.947 1.789 4.031.081 8.8-3.817 10.657-17.85 11.863-27.696 33.147-25.387 54.953a33.109 33.109 0 0 0 4.53 14.45c10.558 19.012 30.599 30.26 51.776 28.993a8.964 8.964 0 0 1 2.48-.092h-.015Z" fill="#142132"/><path d="M265.364 156.312c3.23-14.196-5.281-28.411-19.009-31.751-13.728-3.34-27.475 5.46-30.705 19.656-3.23 14.195 5.28 28.411 19.008 31.751 13.728 3.34 27.476-5.46 30.706-19.656Z" fill="#142132"/><path d="M164.212 192.192c3.125-13.732-5.436-27.563-19.12-30.893a25.044 25.044 0 0 0-30.434 18.837c-3.125 13.732 5.435 27.563 19.119 30.892a25.044 25.044 0 0 0 30.435-18.836Z" stroke="#142132" stroke-width="20" stroke-miterlimit="10"/><path d="M201.92 246.627c14.093 0 25.536 11.832 25.536 26.405s-11.443 26.406-25.536 26.406c-14.093 0-25.535-11.802-25.535-26.406s11.442-26.405 25.535-26.405ZM200.554 57.452c3.899 1.881 5.555 6.68 3.728 10.688-7.626 23.403-19.981 44.887-36.265 62.961-17.732-10.181-39.309-10.181-57.041 0-16.284-18.074-28.64-39.558-36.265-62.961a9.02 9.02 0 0 1-.683-2.472c-.483-4.416 2.562-8.393 6.801-8.923 4.27-.53 8.139 2.619 8.65 7.034 5.384 21.222 21.92 37.469 42.674 41.976a30.263 30.263 0 0 0 14.687 0c20.776-4.507 37.29-20.754 42.695-41.976a7.542 7.542 0 0 1 .683-2.473c1.82-4 6.431-5.743 10.336-3.854Z" fill="#142132"/><path d="M167.482 312.03c.401.737.683 1.558.854 2.411.795 4.353-1.968 8.568-6.178 9.421-4.21.821-8.286-2.027-9.081-6.389-7.143-23.579-9.333-48.449-6.46-72.965 20.152-2.534 37.602-15.656 46.17-34.675 23.427 4.737 45.629 14.573 65.098 28.878.742.414 1.396.975 1.967 1.589 2.904 3.271 2.703 8.362-.43 11.364-3.156 3.002-8.086 2.825-10.99-.446-16.424-13.889-39.027-16.984-58.385-8.008-4.611 1.943-8.68 5.006-11.895 8.922-14.234 16.247-18.385 39.443-10.677 59.898h.007ZM139.496 48c14.116 0 25.536 11.801 25.536 26.405 0 14.604-11.413 26.375-25.536 26.375-14.122 0-25.535-11.802-25.535-26.375S125.411 48 139.496 48ZM132.383 244.508c2.903 24.516.713 49.394-6.431 72.966a8.833 8.833 0 0 1-.853 2.411c-2.109 3.854-6.832 5.236-10.589 3.086-3.727-2.18-5.064-7.094-2.963-10.949 7.686-20.455 3.557-43.65-10.699-59.897-3.216-3.916-7.284-6.98-11.873-8.922-19.358-8.976-41.96-5.89-58.385 8.008a8.655 8.655 0 0 1-1.96 1.589c-3.758 2.119-8.48.707-10.56-3.179-2.078-3.885-.712-8.768 3.045-10.918 19.47-14.304 41.67-24.132 65.127-28.878 8.569 19.012 26.018 32.141 46.141 34.675v.008Z" fill="#142132"/><path d="M77.072 246.627c14.116 0 25.536 11.832 25.536 26.405s-11.413 26.406-25.536 26.406c-14.123 0-25.506-11.802-25.506-26.406s11.413-26.405 25.506-26.405ZM56.563 168.932c9.972-10.312 9.972-27.031 0-37.343-9.973-10.312-26.14-10.312-36.113 0-9.972 10.312-9.972 27.031 0 37.343 9.972 10.312 26.14 10.312 36.112 0Z" fill="#142132"/><path d="M12.747 212.037a7.07 7.07 0 0 1-2.48-.085c-4.21-.852-6.943-5.09-6.118-9.452.854-4.353 4.923-7.179 9.14-6.326 21.207 1.267 41.248-9.982 51.806-28.993a33.119 33.119 0 0 0 4.53-14.451c2.28-21.813-7.544-43.09-25.395-54.952a7.796 7.796 0 0 1-2.079-1.413C39.018 93.332 38.847 88.24 41.81 85c2.932-3.24 7.826-3.417 10.989-.384 19.157 14.72 35.07 33.523 46.683 55.13-14.858 14.273-21.519 35.496-17.62 56.104-21.66 10.419-45.228 15.925-69.115 16.186Z" fill="#142132"/></g><defs><clipPath id="a"><path fill="#fff" transform="translate(66)" d="M0 0h147.149v26H0z"/></clipPath><clipPath id="b"><path fill="#fff" transform="translate(4 48)" d="M0 0h271v276H0z"/></clipPath></defs></svg>