<svg width="393" height="386" fill="none" xmlns="http://www.w3.org/2000/svg"><path opacity=".3" d="M393 0H0v386h393V0Z" fill="url(#a)"/><path d="M74.5 170.5c9-10 10.5-26.8 8.8-42.4C80.8 105.8 60 94 37.5 94A35.5 35.5 0 0 0 2 129.5v237c0 10.8 8.7 19.5 19.4 19.5 17.1 0 26.7-21.2 17-35.2a201.9 201.9 0 0 1-15.8-26.4c-15-30.7-12.9-67-2.9-94.5 10.5-29 32.6-35 54.8-59.4Z" fill="#F89238"/><g clip-path="url(#b)"><path d="M238 177.1s10.4-7.8 34.9-2.8l-7.6 9.8-19.4 2.2-6.8-4.8-1-4.4Z" fill="#D17D30"/><path d="m102.3 358.3-1 6.9-1.3 9.4-25.7-8.8.3-1.9 1.9-12.8.8-5.9 22.5 2.3 1.1 5 1.4 5.8Z" fill="#FFB6B2"/><path d="M165 203.2s5.7-1.4 12-2c6.5-.7 27.4 27.5 27.4 27.5v39.6l-17.5 5.8-28-45.4 6-25.5ZM102.3 358.3l-1 6.9-26.7-1.3 1.9-12.8.3-.3 24.1 1.6 1.4 6Z" fill="#F67B7A"/><path d="M74.3 365.8s-3.3 13.8-2 16.3c1.1 2.5 11.8 2.5 11.8 2.5s38.7 3 39.4-1.2c.6-4.3-20.8-16.4-20.8-16.4s.3-4.2-6.6-3.5c-6.9.7-6.5 4.3-6.5 4.3s-5.5 1.3-15.3-2Z" fill="#142132"/><path d="M280.5 97.8a135 135 0 0 0-8.5 11.8l-.9 62-.3 19.2-2.2.8-25.5 9.4.4-5.3 1.6-21.4 4.8-64.6 1.8-22.3s1-1.7 3.4-1.2c0 0 1.5-2.8 3-3 1.5 0 2.4.4 2.4.4s.9-2.5 2.7-2.6c1.9-.1 2.3 2 2.3 2L265 91l6-8.3s2.2-1 3 1.4l-3.8 14.5s6.3-5.5 10.6-3.7c0 0 1.5 1.1-.4 2.8ZM277.5 360.6c-4.3 1.8-10.5-3.8-10.5-3.8l3.8 14.5c-.8 2.5-3 1.4-3 1.4l-6-8.3.3 8.2s-.4 2.1-2.2 2c-1.9-.2-2.8-2.6-2.8-2.6s-.9.5-2.4.3c-1.4-.1-2.9-3-2.9-3-2.4.6-3.5-1.2-3.5-1.2l-1.8-22.2-3-40.6-1.5-20-2.3-30.7 27.8 10.2.3 18.8.2 17.3.7 45s6.7 10.2 8.5 11.9c1.8 1.6.3 2.8.3 2.8Z" fill="#FFB6B2"/><path d="m257.1 372-.3-11.2" stroke="#F67B7A" stroke-width=".8" stroke-linecap="round" stroke-linejoin="round"/><path d="m271.1 171.5-.3 19.3-2.2.8-24 6.4-1.1-2.3 1.6-21.4c2.5 0 15 .2 26-2.8ZM268 301l-24.5 4.3-1.5-20 25.8-1.7.2 17.3Z" fill="#F67B7A"/><path d="M251.8 369.4V358M249.1 355.2s3 5.1 12.3 7.2M267 356.9s-11.1-.4-13.2-7.8" stroke="#F67B7A" stroke-width=".8" stroke-linecap="round" stroke-linejoin="round"/><path d="M278.1 243.8s1 5.3 6.3 7c5.2 1.7 11.5-.5 11.5-.5s.6 2.1 1.8 2c1.3-.2 4.3-4 4.3-4l7.4-4s9.1-11.2 4.3-20.9c-4.7-9.7-14.1-13.2-22.7-9.5-8.7 3.8-12.3 12-12.3 12l-10.4-.2s-14 9.2-.8 20.2c0 0 6.5-2.8 10.6-2.1Z" fill="#FFB6B2"/><path d="m267.5 264.8 1.6-51-29.4 14.3v26.5l27.8 10.2Z" fill="#FFB6B2"/><path d="M238 177.1s13.3 6.2 34.9-2.8l-4 51.4s-11.5.8-10.7 11.3c.8 10.6 10 8.7 10 8.7l1.8 51.8s-22.2 2.7-32 2.7l-7.8-35.4-7.4 1s-4.8 8-11.9 11.6L199 249.1s-11.6-33.7-28-48c0 0 41-4.8 68.7-2.6l-1.7-21.4Z" fill="#EA974C"/><path d="m252 366-6.4 8.6-19-8.8-.7-.6-4.4-4.2-16.3-15 30.7-7 6.7 11.3 5.3 8.8 4 6.8Z" fill="#FFB6B2"/><path d="m247.9 359.1-22 6-4.4-4-1.2-3.7 18.5-7.8 3.8.7 5.3 8.8Z" fill="#F67B7A"/><path d="M226.6 365.8s-3.3 13.8-2 16.3c1 2.5 11.8 2.5 11.8 2.5s38.7 3 39.4-1.2c.6-4.3-20.8-16.4-20.8-16.4s.3-4.2-6.6-3.5c-7 .7-6.6 4.3-6.6 4.3s-6.5 1.9-15.2-2Z" fill="#142132"/><path d="m214.1 366 36.7-11.3L199 249.1s-18.4-37.6-34.1-46c0 0-72.6 28.4-98 156.6l42 2.5s25.7-61.3 43-81.4l62.2 85.1Z" fill="#1D3D5E"/><path d="M260.5 83.6v9M255.2 86.2v9.4M265.1 91.1s-7.1 1.4-11.6 6.2M270.3 98.7s-10.2-2.3-16 6.7" stroke="#F67B7A" stroke-width=".8" stroke-linecap="round" stroke-linejoin="round"/><path d="M152 280.8s-13-10.1-14-34.5c-.9-24.4 16-37.2 16-37.2M222.8 265.8s3-4.4 3-7.7" stroke="#142132" stroke-width=".8" stroke-linecap="round" stroke-linejoin="round"/><path d="M295.4 230.2s3.6-7.5-3-7.9c-6.7-.3-5 7.9-5 7.9s-1.6 2.7-6 2.2c-4.3-.6-5.2-5.2-4.6-7.5.6-2.4 3.6-3.8 3.6-3.8s5.8-10.5 19.3-10.3c13.5.1 16.2 9.7 16.7 12.9 0 0 4.7 5.2 4 9.6 0 0 13.1 10 2.4 16.2a11.6 11.6 0 0 1-16.6-3.6l3.2-1.7s-8.6-2.9-9-11.9c0 0-6.7 2.2-10.6.7l5.6-2.9Z" fill="#142132"/><path d="M294 233.6s-6 3.3-8 5.7c0 0 7.7 3 10 11 0 0-2.9 5.2-13 2-10.2-3.3-5.2-19.9-3.5-22.3l8 .1s.8 2.8 2.3 3l4.2.5Z" fill="#142132"/><path d="M291.2 229.3s3.3-.1 3.7-3c.3-2.8-5.1-3.7-7 .8 0 0 1.5-.2 1.7.9.2 1-1.5 1.1-1.5 1.1" stroke="#F67B7A" stroke-width=".4" stroke-linecap="round" stroke-linejoin="round"/><path d="M288.8 225.7s5.6-1.1 5.8 1.6" stroke="#F67B7A" stroke-width=".4" stroke-linecap="round" stroke-linejoin="round"/></g><path d="M319.4 309.5c-9 10-10.5 26.8-8.8 42.4 2.5 22.3 23.3 34.1 45.8 34.1a35.5 35.5 0 0 0 35.5-35.5v-237c0-10.8-8.7-19.5-19.5-19.5-17 0-26.6 21.2-16.9 35.2 6 8.5 11.5 17.5 15.8 26.4 14.9 30.7 12.8 67 2.8 94.5-10.4 29-32.5 35-54.7 59.4Z" fill="#F89238"/><defs><radialGradient id="a" cx="0" cy="0" r="1" gradientUnits="userSpaceOnUse" gradientTransform="rotate(-125.9 97 50.4) scale(204.832 208.546)"><stop offset=".6" stop-color="#735268" stop-opacity=".4"/><stop offset=".9" stop-color="#fff" stop-opacity="0"/><stop offset="1" stop-color="#fff" stop-opacity=".4"/></radialGradient><clipPath id="b"><path fill="#fff" transform="translate(67 81)" d="M0 0h260v304.7H0z"/></clipPath></defs></svg>