<svg width="393" height="386" fill="none" xmlns="http://www.w3.org/2000/svg"><path opacity=".34" d="M393 0H0v386h393V0Z" fill="url(#a)"/><path d="M72.5 169.5c9.01-9.908 10.468-26.795 8.752-42.381C78.793 104.789 57.958 93 35.493 93 15.891 93 0 108.891 0 128.493v237.065C0 376.296 8.704 385 19.442 385c17.068 0 26.63-21.17 16.9-35.194-5.887-8.486-11.491-17.553-15.753-26.359-14.896-30.776-12.84-66.981-2.852-94.581 10.458-28.899 32.578-34.97 54.763-59.366Z" fill="#F89238"/><g clip-path="url(#b)"><path d="M238.006 177.127s10.383-7.866 34.864-2.866l-7.599 9.816-19.416 2.199-6.749-4.816-1.1-4.35v.017Z" fill="#D17D30"/><path d="m102.315 358.332-.967 6.833-1.333 9.433-25.682-8.8.267-1.849 1.883-12.816.867-5.9 22.481 2.3 1.117 4.883 1.367 5.916Z" fill="#FFB6B2"/><path d="M164.911 203.175s5.766-1.366 12.166-1.999c6.399-.634 27.348 27.481 27.348 27.481v39.664l-17.532 5.75-27.998-45.414 6.016-25.482ZM102.315 358.332l-.967 6.833-26.748-1.217 1.883-12.815.316-.334 24.149 1.617 1.367 5.916Z" fill="#F67B7A"/><path d="M74.333 365.815s-3.284 13.816-2.1 16.282c1.183 2.484 11.899 2.5 11.899 2.5s38.698 3.083 39.348-1.183c.666-4.266-20.782-16.449-20.782-16.449s.316-4.133-6.583-3.466c-6.9.683-6.55 4.349-6.55 4.349s-5.466 1.267-15.232-2.033Z" fill="#142132"/><path d="M280.52 97.799c-1.817 1.65-8.483 11.833-8.483 11.833l-.917 61.896-.283 19.232-2.233.816-25.532 9.45.4-5.283 1.583-21.466 4.817-64.579 1.8-22.248s1.033-1.784 3.466-1.217c0 0 1.45-2.833 2.933-2.983 1.484-.133 2.383.367 2.383.367s.9-2.484 2.75-2.617 2.25 1.95 2.25 1.95l-.366 8.2 6.016-8.317s2.183-1.05 3.066 1.417l-3.833 14.482s6.233-5.533 10.533-3.766c0 0 1.483 1.183-.35 2.833ZM277.537 360.615c-4.3 1.767-10.533-3.766-10.533-3.766l3.833 14.482c-.883 2.484-3.066 1.417-3.066 1.417l-6.016-8.299.366 8.199s-.4 2.067-2.25 1.933c-1.85-.133-2.75-2.616-2.75-2.616s-.899.5-2.383.366c-1.483-.133-2.933-2.983-2.933-2.983-2.433.567-3.466-1.216-3.466-1.216l-1.8-22.232-3.017-40.631-1.5-19.965-2.283-30.732 27.765 10.266.283 18.716.25 17.365.667 45.047s6.666 10.183 8.483 11.833c1.833 1.65.35 2.816.35 2.816Z" fill="#FFB6B2"/><path d="m257.121 371.981-.283-11.182" stroke="#F67B7A" stroke-width=".75" stroke-linecap="round" stroke-linejoin="round"/><path d="m271.12 171.528-.283 19.232-2.234.816-24.031 6.433-1.1-2.266 1.583-21.466c2.566.067 15.132.267 26.065-2.749ZM268.037 300.919l-24.515 4.35-1.5-19.965 25.765-1.75.25 17.365Z" fill="#F67B7A"/><path d="M251.821 369.365v-11.333M249.139 355.199s2.933 5.117 12.249 7.25M267.004 356.866s-11.116-.317-13.166-7.733" stroke="#F67B7A" stroke-width=".75" stroke-linecap="round" stroke-linejoin="round"/><path d="M278.103 243.756s.984 5.333 6.25 7.066c5.283 1.717 11.566-.533 11.566-.533s.533 2.133 1.783 1.95c1.25-.183 4.267-3.966 4.267-3.966l7.416-4.034s9.116-11.099 4.35-20.798c-4.75-9.7-14.166-13.266-22.782-9.5-8.616 3.767-12.283 11.883-12.283 11.883l-10.399-.1s-14.066 9.216-.8 20.199c0 0 6.549-2.833 10.599-2.15l.033-.017Z" fill="#FFB6B2"/><path d="m267.521 264.838 1.583-51.113-29.365 14.349v26.498l27.782 10.266Z" fill="#FFB6B2"/><path d="M238.006 177.127s13.249 6.216 34.864-2.866l-4.033 51.463s-11.399.733-10.616 11.316c.783 10.583 9.899 8.633 9.899 8.633l1.917 51.847s-22.249 2.666-32.031 2.666l-7.8-35.348-7.433.984s-4.766 7.899-11.849 11.615l-11.916-28.348s-11.583-33.731-28.015-48.063c0 0 41.098-4.683 68.729-2.5l-1.733-21.399h.017Z" fill="#EA974C"/><path d="m251.955 365.948-6.333 8.65-19.015-8.799-.684-.634-4.466-4.116-16.249-15.016 30.665-6.966 6.699 11.199 5.317 8.883 4.066 6.799Z" fill="#FFB6B2"/><path d="m247.888 359.149-21.965 6.016-4.466-4.116-1.184-3.633 18.566-7.817 3.733.667 5.316 8.883Z" fill="#F67B7A"/><path d="M226.606 365.815s-3.283 13.816-2.1 16.282c1.183 2.484 11.899 2.5 11.899 2.5s38.698 3.083 39.348-1.183c.667-4.266-20.782-16.449-20.782-16.449s.317-4.133-6.583-3.466c-6.9.683-6.55 4.349-6.55 4.349s-6.516 1.833-15.232-2.033Z" fill="#142132"/><path d="m214.141 365.949 36.614-11.25-51.747-105.61s-18.415-37.597-34.114-45.93c0 0-72.596 28.381-97.91 156.523l41.897 2.5s25.731-61.279 43.03-81.395l62.213 85.145.017.017Z" fill="#1D3D5E"/><path d="M260.454 83.617v8.899M255.154 86.233v9.333M265.104 91.15s-7.149 1.366-11.599 6.182M270.337 98.749s-10.2-2.367-15.966 6.616" stroke="#F67B7A" stroke-width=".75" stroke-linecap="round" stroke-linejoin="round"/><path d="M151.928 280.804s-12.899-10.133-13.849-34.531c-.95-24.399 15.849-37.165 15.849-37.165M222.773 265.822s2.934-4.417 3.084-7.75" stroke="#142132" stroke-width=".75" stroke-linecap="round" stroke-linejoin="round"/><path d="M295.402 230.157s3.633-7.499-3.05-7.849c-6.682-.35-4.916 7.849-4.916 7.849s-1.65 2.75-5.983 2.2c-4.333-.55-5.266-5.133-4.683-7.483.583-2.35 3.633-3.75 3.633-3.75s5.766-10.482 19.282-10.332c13.516.15 16.249 9.716 16.699 12.899 0 0 4.7 5.166 4.1 9.566 0 0 13.016 10.033 2.266 16.232-10.749 6.2-16.532-3.55-16.532-3.55l3.2-1.733s-8.633-2.883-8.933-11.882c0 0-6.783 2.199-10.649.7l5.583-2.9-.017.033Z" fill="#142132"/><path d="M294.002 233.557s-5.916 3.35-7.983 5.716c0 0 7.716 3.05 9.916 11 0 0-2.833 5.216-12.965 1.966-10.133-3.25-5.2-19.832-3.5-22.265l7.949.167s.884 2.716 2.383 2.899c1.5.167 4.183.517 4.183.517h.017Z" fill="#142132"/><path d="M291.203 229.257s3.316-.083 3.666-2.933c.35-2.85-5.099-3.75-6.883.767 0 0 1.384-.2 1.584.9.2 1.1-1.467 1.116-1.467 1.116" stroke="#F67B7A" stroke-width=".39" stroke-linecap="round" stroke-linejoin="round"/><path d="M288.803 225.657s5.633-1.066 5.816 1.6" stroke="#F67B7A" stroke-width=".39" stroke-linecap="round" stroke-linejoin="round"/></g><path d="M319.379 309.5c-9.01 9.908-10.468 26.795-8.752 42.381 2.459 22.33 23.294 34.119 45.759 34.119 19.602 0 35.493-15.891 35.493-35.493V113.442c0-10.738-8.704-19.442-19.442-19.442-17.068 0-26.629 21.17-16.9 35.194 5.887 8.486 11.491 17.553 15.753 26.359 14.896 30.776 12.841 66.981 2.852 94.581-10.458 28.899-32.578 34.97-54.763 59.366Z" fill="#F89238"/><defs><radialGradient id="a" cx="0" cy="0" r="1" gradientUnits="userSpaceOnUse" gradientTransform="rotate(-125.863 97 50.377) scale(204.832 208.546)"><stop offset=".55" stop-color="#735268" stop-opacity=".36"/><stop offset=".91" stop-color="#fff" stop-opacity="0"/><stop offset="1" stop-color="#fff" stop-opacity=".36"/></radialGradient><clipPath id="b"><path fill="#fff" transform="translate(67 81)" d="M0 0h260v304.664H0z"/></clipPath></defs></svg>