<svg width="393" height="386" fill="none" xmlns="http://www.w3.org/2000/svg"><g clip-path="url(#a)"><path opacity=".4" d="M393 0H0v386h393V0Z" fill="url(#b)"/><path opacity=".1" d="M169.8 213.3c-23.5-21.4-63.6-24.9-100.6-20.8C16.1 198.3-12 248-12 301.5A84.5 84.5 0 0 0 72.5 386h563.2a46.3 46.3 0 0 0 46.3-46.3c0-40.6-50.4-63.3-83.8-40.1a479.2 479.2 0 0 1-62.5 37.4c-73.1 35.4-159.2 30.5-224.8 6.8-68.7-25-83.1-77.6-141-130.5Z" fill="#317D35"/><g clip-path="url(#c)"><path d="M252.4 279.3h-59.8a.2.2 0 0 1 0-.4h59.8a.2.2 0 0 1 0 .4Z" fill="#E6D0BE"/><path d="M298.6 263.2a35.3 35.3 0 0 0 5.7-20.7c0-2.7-.2-5.4-.6-7.9 4-1.9 6.5-4.7 6.5-7.8 0-2.2-1.3-4.3-3.5-6C329 209 345 173.5 345 131.4v-5.1H236.4v5.1c0 42 16 77.6 38.3 89.4-2.2 1.7-3.5 3.8-3.5 6 0 3.1 2.5 6 6.5 7.8-.4 2.5-.6 5.2-.6 8 0 8.5 2.2 16 5.7 20.6-16.8 1.5-29.4 7.7-29.8 15.2h75.4c-.4-7.5-13-13.7-29.8-15.2Z" fill="#EA974C"/><path d="M271 204.6h-36c-12.2 0-22-10-22-22.2v-51l.1-.2h58l.1.2v73c0 .1 0 .2-.2.2Zm-57.7-73v50.8c0 12 9.7 21.8 21.7 21.8h35.8v-72.6h-57.5ZM346 204.6h-36.1l-.2-.2v-73s0-.2.2-.2h58l.1.2v51c0 12.3-10 22.2-22 22.2Zm-36-.4h36c11.9 0 21.6-9.8 21.6-21.8v-50.8h-57.5v72.6Z" fill="#EA974C"/><path d="M307 209.5v-.3c5.1-5 14.9-16 21.6-33.8 5.8-15.5 6-23.8 6.2-36.3a2785.7 2785.7 0 0 1 .2-3l.2.1v3a90.8 90.8 0 0 1-6.3 36.3 92.1 92.1 0 0 1-21.8 34Z" fill="#F7F1EB"/><path d="m272.3 147.5-6.1-1.3c-2.2-.4-4-2.2-4.4-4.4l-1.3-6-1.2 6c-.5 2.3-2.2 4-4.5 4.5l-6 1.2 6 1.3c2.3.4 4 2.2 4.5 4.4l1.3 6 1.2-6c.5-2.3 2.2-4 4.4-4.5l6-1.2Z" fill="#fff"/><path d="M302.6 220.6h-24c-.1 0-.2 0-.2-.2l.2-.1h24a.2.2 0 0 1 0 .3ZM300.8 234.8h-20.4a.2.2 0 0 1 0-.4h20.4a.2.2 0 0 1 0 .4ZM295.5 264.2h-10.4a.2.2 0 0 1 0-.4h10.4a.2.2 0 0 1 0 .4Z" fill="#F7F1EB"/><path d="m208.1 278-18 8.4-7.7-25.1 19.3-5.6 6.4 22.3Z" fill="#BC8271"/><path d="m238.8 277.8-46.3 22.4-4.2-19.8 18.1-8.8 15-2.3a15.8 15.8 0 0 1 17.4 8.5Z" fill="#EA974C"/><path d="M160.8 169.1s34.7 29.6 39.6 43.4c4.3 12.6 9 45 9 45l-30.3 9.9-12.9-44.1-38-30.7 1-28.7 31.6 5.2Z" fill="#A0C296"/><path d="m44.3 236.3-.5-20 26 3-2.5 20-23-3Z" fill="#BC8271"/><path d="m32.2 264.5-2-51.4 19.8 4 .8 20.1-3.9 14.8a15.8 15.8 0 0 1-14.7 12.5Z" fill="#EA974C"/><path d="M154.4 194.8s-23 39.8-36.2 46.3c-13.3 6.5-59.3.5-59.3.5l-.6-26.2 43.7-6.3 20-41.6 32.3-4.8v32Z" fill="#A0C296"/><path d="M191 132.7c15.7 28.6 6.2 27.2 1.3 29.6-4 2-12.3-8.2-18.7-20.2-6.5-12-7.8-23.9-3-26.5 4.9-2.6 13.9 5.1 20.4 17ZM127.7 140.1c-29.3 14.3-27.4 4.9-29.6-.2-1.8-4 8.9-11.9 21.1-17.7 12.3-5.9 24.2-6.6 26.5-1.7 2.4 5-5.7 13.6-18 19.6Z" fill="#BC8271"/><path d="M111 123c15-12 35.4-19.2 55.3-13.4 17.1 5 25.2 17.2 31 31-5.8 2.4-14.8 5-17.4 5.8-.9 9.1-2.3 31-3 37-9.5-1.8-56.3-13.4-56.3-13.4l8.8-30.7s-9.1-10.2-18.5-16.2Z" fill="#142132"/><path d="m196.5 143.6 28-5.3c3.5-.7 20.4-3.8 20.8-1.3.4 1.5-8 3.3-9.5 3.7 1.8 0 11-1.8 11.4-.4.4 1.5-11 4.7-11 4.8 1.2-.2 10.5-1.8 10.6-.4.3 1.5-9.2 4-10.8 4.3.2.2 6.9-1.3 7.3.2.3 1.3-7.2 3.4-8.2 3.8-2.7 1-7.7 2.3-13.4 4-13.3 4.1-19.4 5.4-26.2 6.2a11 11 0 0 1-10.7-5.4l11.7-14.2ZM116.6 145l3.9 28.4c.5 3.5 2.8 20.5.3 20.9-1.6.2-2.9-8.3-3.2-9.7 0 1.8 1.2 11-.2 11.3-1.5.4-4-10.4-4-10.5 0 1.3 1 9.9-.3 10-1.6.1-3.6-9.5-3.9-11-.1 0 1 6.9-.5 7.2-1.3.3-3-7.4-3.4-8.4-1-2.7-2-7.8-3.4-13.6a137.5 137.5 0 0 1-4.8-26.5 11 11 0 0 1 6-10.5c4.1 4 9.3 8.5 13.5 12.5Z" fill="#BC8271"/><path d="m178 140.2-27.7-2.6-1.2 13 27.7 2.5 1.2-13Z" fill="#A0C296"/><path d="M174.2 106.8c-2.9 1.3-8.9-5-8.9-5l-2.2-9.3a8 8 0 1 1 15.5 3.3s-1.5 9.8-4.4 11Z" fill="#BC8271"/><path d="m172.7 94.4-9.6-2L159 112l9.5 2 4.2-19.6Z" fill="#BC8271"/><path d="M177.7 89.5c.5-1.1-1.7-3.9-4.6-4.9-3.5-1.2-8-.9-11.3 2.7-3 3.5-3 9.3-.4 13.5l3-1.5c-1.6-2.5-1.2-4.7-.3-5.3.7-.5 1.8-.4 3.2.8-.1 1-.2 2.7.5 2.9 1.1.2 1.5-5.1 4.2-6.5 2.7-1.4 5.3-.8 5.7-1.7Z" fill="#142132"/><path d="M177.9 97.8s1.6 2.6 1.4 3.2c-.3.6-2.7.6-2.7.6l1.3-3.8Z" fill="#BC8271"/><path d="M231.5 198.2c-2.9 1.2-8.8-5-8.8-5l-2.3-9.3a8 8 0 1 1 15.5 3.3s-1.5 9.7-4.4 11Z" fill="#FFB6B2"/><path d="m230 185.8-9.5-2-4.2 19.5 9.6 2 4.1-19.5Z" fill="#FFB6B2"/><path d="M235 180.8c.5-1.1-1.7-3.9-4.6-4.8-3.5-1.2-8-1-11.3 2.7-3 3.4-3 9.2-.4 13.4l3-1.5c-1.6-2.5-1.1-4.7-.3-5.3.7-.4 1.8-.4 3.2.8.6.5 2-2.2 4.7-3.6 2.8-1.4 5.3-.8 5.7-1.7Z" fill="#795069"/><path d="m222 181.2-2.1-1.8c-2-1.9-4.4-4.2-7.5-5.1-7.8-2.3-14.7.2-20.3 2.2-2.1.8-4 1.5-5.8 1.8a33 33 0 0 1-16.5-1.2 76 76 0 0 1-24.2-14.2h.3c15.2 12.3 28.8 17.4 40.3 15 1.7-.3 3.7-1 5.8-1.8 5.6-2 12.6-4.6 20.5-2.2 3.2 1 5.7 3.3 7.7 5.2l2 1.8v.2l-.2.1Z" fill="#795069"/><path d="M235.2 189.2s1.6 2.6 1.4 3.1c-.3.7-2.7.6-2.7.6l1.3-3.7Z" fill="#FFB6B2"/><path d="M212.1 174.5c-10.9-2.8-19.8 3.5-26 5-8.5 2-21.5 1-41-13.6a25 25 0 0 1-2.9 7.2c1.5 2.2 3.4 4.4 5.9 6.6a40.3 40.3 0 0 0 30.7 8.3c-2 .8-13 4.9-24.8-.6a31.7 31.7 0 0 1-13.5-11.8c-2.4 3.2-5 5-6.8 6.1a49.6 49.6 0 0 0 42 19c11-1.4 25.2-17.1 34-19 5.7-1.2 9.3-.1 12.3-.6-2.2-1.5-5.4-5.5-9.9-6.6Z" fill="#795069"/><path d="M237.1 274s29.3 14.5 32.2 22c2.8 7.5 19.5 59.9 19.5 59.9l-17.9 8.9s-33-33-27.3-54.6l-35.7-9.2 29.2-27ZM185.4 302.5s-21.8 24.5-29.7 26.2c-7.8 1.7-61.6-1.1-61.6-1.1l-2.1-18s33.4-17.7 53.8-8.6l13.8-17.4 25.8 18.9Z" fill="#FFB6B2"/><path d="M177.4 254.9s-6.7 16.3 0 28.6c9.6 17.4 50.9 25.8 50.9 25.8l19.2-30.5-29-19.8-41-4.1Z" fill="#795069"/><path d="m177.4 254.9-29.1 42.8 30.5 21.4s20.7-23 26.3-31.7c5.5-8.6 10.5-23 10.5-23l-38.2-9.5Z" fill="#795069"/><path d="M196.4 298.9c-9.7-4.7-16.1-9.8-19.1-15.3a30.2 30.2 0 0 1-2.6-18.8 44.5 44.5 0 0 1 2.8-9.7 44 44 0 0 0-2.4 9.7c-.8 5-1 12.4 2.5 18.7 3 5.3 9.3 10.4 19 15a.2.2 0 0 1-.2.4Z" fill="#142132"/><path d="M319.8 360.6 273.5 383l-4.2-19.8 18.9-9.1 14.2-2a15.8 15.8 0 0 1 17.4 8.5ZM70.6 350.5l8.7-50.7 17.8 7.6-2.6 20.3-6.8 13.6a15.8 15.8 0 0 1-17 9.2Z" fill="#EA974C"/><path d="m245.5 234.8 24.8-15c3-2 17.6-10.9 18.9-8.7.8 1.3-6.4 5.9-7.6 6.8 1.7-.7 9.6-5.5 10.5-4.4 1 1.3-8.6 8.3-8.6 8.4 1-.6 9.2-5.4 9.8-4.2.8 1.4-7.2 7.1-8.5 8 .2 0 5.9-3.8 6.8-2.5.8 1.1-5.5 5.7-6.3 6.5-2 2-6.4 5-11 8.6a137 137 0 0 1-22.4 15 11 11 0 0 1-12-1.2c2-5.4 3.7-11.8 5.6-17.3Z" fill="#FFB6B2"/><path d="M245.6 224.1c-4.2-8-9-14.6-13.3-17.4a27.5 27.5 0 0 0-11.4-5.5c-15.7-3.8-60.5-6.5-62.6-1.5-2 5-.3 14 10.4 16.7l21.3 4.7s-3.7 10.5-.4 11.8c9.6 5.4 33-1.7 36.4-4.4.5 1.2 11.1 27.1 17.7 24.6 5.1-2 12-10 2-29Z" fill="#FFB6B2"/><path d="M171.3 215c-4.2 7.1-15.8 24.1-16.7 25.7-1.8 3.1-10.5 17.8-12.7 16.6-1.3-.8 2.9-8.2 3.5-9.6-1.1 1.4-5.9 9.4-7.2 8.8-1.4-.7 3.4-10.7 3.4-10.8-.7 1-5.3 8.4-6.4 7.7-1.4-.9 3-9.7 3.8-11-.2 0-3.5 6-4.9 5.3-1.2-.6 2.2-7.7 2.5-8.7 1-2.7 3.3-7.3 5.8-12.8 5.7-12.7 8.8-18.1 12.6-23.7 1.5-2.2 3.5-4.8 12.1-5.2.9 5.7 3.3 12 4.2 17.8Z" fill="#FFB6B2"/><path d="M229 204.2s3.5 20.7-9.6 19.8c-11-.8-7.4-24.4-7.4-24.4l-6.7-.9s1.4 27.3-16.6 26.8l-11.2 29.4 41 4.1 11.4-20s4.3-1 5.2-5.4c.6-3.6-2.4-6.2-2.4-6.2l1.2-19.8-4.9-3.4Z" fill="#F89238"/><path d="m220 251.2-25.7-6.8 6.3-11.8 25.6 6.7-6.1 12Z" fill="#EA974C"/><path d="m196.9 222.2-7-.9a.2.2 0 0 1-.1-.2l.2-.2 6.9 1c.1 0 .2 0 .2.2l-.2.1ZM210.4 235.6c-2.2 0-4-.6-5.2-1.8-2-2.2-1.5-5.5-1.5-5.6l.2-.2.2.2s-.5 3.3 1.4 5.3c1.4 1.4 3.6 2 6.6 1.6l.2.2-.1.2-1.8.1ZM229.2 252.4c-18.1 18-46.6 11.2-74.8 11.2-31.6-.1-75.1 8.3-128.4 45 1 3.8 2.2 7.6 3.5 11.2C66 291.3 92 282.1 110.9 277c29-8 36.3-5.5 77.5-4 22.6 1 38.9-6.2 45-12.2 2.8-3 4.9-6 6.3-9a36 36 0 0 1-5-6.5c-1.4 2.4-3.1 4.8-5.5 7.1Z" fill="#142132"/><path d="M282.5 217.7c-1.2 0-1.8.2-2.8.9l-1.8 1.2-.9.5" stroke="#FFB6B2" stroke-width="3" stroke-linecap="round"/></g></g><defs><clipPath id="a"><path fill="#fff" d="M0 0h393v386H0z"/></clipPath><clipPath id="c"><path fill="#fff" transform="translate(26 84)" d="M0 0h342v299H0z"/></clipPath><radialGradient id="b" cx="0" cy="0" r="1" gradientUnits="userSpaceOnUse" gradientTransform="rotate(-125.9 97 50.4) scale(204.832 208.546)"><stop offset=".6" stop-color="#EA974C" stop-opacity=".3"/><stop offset=".9" stop-color="#fff" stop-opacity="0"/><stop offset="1" stop-color="#fff" stop-opacity=".4"/></radialGradient></defs></svg>